<svg xmlns="http://www.w3.org/2000/svg" xmlns:xlink="http://www.w3.org/1999/xlink" width="500" zoomAndPan="magnify" viewBox="0 0 375 374.999991" height="500" preserveAspectRatio="xMidYMid meet" version="1.0"><defs><clipPath id="f4af67db50"><path d="M 31.457031 16.257812 L 343.457031 16.257812 L 343.457031 359 L 31.457031 359 Z M 31.457031 16.257812 " clip-rule="nonzero"/></clipPath></defs><g clip-path="url(#f4af67db50)"><path fill="#c1121f" d="M 226.351562 124.285156 L 227.09375 124.285156 L 227.128906 124.289062 L 227.496094 124.289062 L 227.566406 124.292969 L 227.664062 124.292969 L 228.507812 124.304688 C 226.390625 105.796875 217.984375 89.195312 205.484375 76.691406 C 190.933594 62.144531 170.835938 53.144531 148.640625 53.144531 C 126.445312 53.144531 106.34375 62.144531 91.796875 76.691406 C 77.25 91.242188 68.25 111.339844 68.25 133.535156 L 68.25 321.855469 L 226.351562 321.855469 C 248.546875 321.855469 268.644531 312.859375 283.195312 298.308594 C 297.742188 283.761719 306.742188 263.664062 306.742188 241.464844 C 306.742188 219.269531 297.738281 199.171875 283.195312 184.625 C 276.636719 178.070312 268.957031 172.640625 260.464844 168.65625 C 254.742188 186.890625 244.683594 203.203125 231.496094 216.390625 C 213.398438 234.488281 189.410156 246.695312 162.660156 249.886719 L 162.390625 249.921875 C 162.054688 249.957031 161.714844 249.992188 161.375 250.03125 L 160.953125 250.074219 C 160.644531 250.109375 160.332031 250.140625 160.023438 250.171875 L 159.535156 250.214844 C 159.242188 250.246094 158.945312 250.269531 158.648438 250.292969 L 158.070312 250.34375 C 157.800781 250.363281 157.535156 250.386719 157.261719 250.402344 L 156.621094 250.449219 C 156.363281 250.46875 156.109375 250.480469 155.855469 250.5 L 155.164062 250.539062 C 154.914062 250.550781 154.664062 250.566406 154.414062 250.578125 C 154.167969 250.589844 153.917969 250.601562 153.671875 250.609375 C 153.449219 250.617188 153.226562 250.628906 153.003906 250.640625 C 152.71875 250.648438 152.4375 250.65625 152.15625 250.664062 L 151.550781 250.679688 C 151.226562 250.6875 150.898438 250.695312 150.574219 250.703125 L 150.101562 250.710938 C 149.617188 250.71875 149.128906 250.71875 148.640625 250.71875 C 144.84375 250.71875 140.78125 250.488281 136.488281 250.042969 C 132.386719 249.617188 128.375 248.984375 124.472656 248.164062 L 108.078125 244.71875 L 109.957031 228.1875 C 113.296875 198.757812 127.492188 172.652344 148.425781 153.988281 C 169.140625 135.511719 196.445312 124.285156 226.351562 124.285156 Z M 265.769531 130.042969 L 266.910156 130.285156 L 266.78125 131.453125 C 282.875 137.371094 297.3125 146.714844 309.207031 158.609375 C 330.414062 179.820312 343.53125 209.113281 343.53125 241.464844 C 343.53125 273.820312 330.414062 303.117188 309.207031 324.320312 C 288 345.53125 258.703125 358.648438 226.351562 358.648438 L 31.457031 358.648438 L 31.457031 133.535156 C 31.457031 101.183594 44.578125 71.886719 65.785156 50.679688 C 86.992188 29.472656 116.289062 16.351562 148.640625 16.351562 C 180.992188 16.351562 210.289062 29.472656 231.496094 50.679688 C 251.9375 71.121094 264.863281 99.082031 265.769531 130.042969 Z M 157.03125 213.492188 C 157.214844 213.472656 157.390625 213.453125 157.574219 213.433594 L 157.964844 213.390625 C 158.25 213.359375 158.53125 213.324219 158.816406 213.285156 L 158.886719 213.277344 C 176.988281 210.976562 193.210938 202.648438 205.484375 190.378906 C 213.683594 182.179688 220.117188 172.214844 224.175781 161.105469 C 204.480469 161.628906 186.554688 169.222656 172.859375 181.4375 C 163.03125 190.203125 155.375 201.320312 150.78125 213.898438 C 151.65625 213.875 152.527344 213.835938 153.394531 213.785156 L 153.585938 213.777344 C 153.808594 213.761719 154.027344 213.746094 154.246094 213.730469 L 154.574219 213.710938 C 154.777344 213.695312 154.984375 213.675781 155.191406 213.660156 L 155.523438 213.632812 L 156.109375 213.582031 L 156.539062 213.542969 Z M 157.03125 213.492188 " fill-opacity="1" fill-rule="nonzero"/></g></svg>