<svg width="429" height="104" viewBox="0 0 429 104" fill="none" xmlns="http://www.w3.org/2000/svg">
<path d="M275.375 22.5553V87.2428H260.396V60.7219H231.021V87.2428H216.042V22.5553H231.021V48.0553H260.396V22.5553H275.375Z" fill="#003049"/>
<path d="M326.192 62.5761C326.192 62.7584 326.099 64.05 325.922 66.4511H288.297C288.974 69.5344 290.578 71.9719 293.109 73.7636C295.635 75.5448 298.781 76.4303 302.547 76.4303C305.13 76.4303 307.422 76.0501 309.422 75.2844C311.422 74.5084 313.281 73.2844 315.005 71.6178L322.692 79.9511C317.995 85.3001 311.156 87.9719 302.172 87.9719C296.557 87.9719 291.594 86.8834 287.276 84.7011C282.969 82.524 279.64 79.4928 277.297 75.6178C274.963 71.7323 273.797 67.3209 273.797 62.3886C273.797 57.5136 274.948 53.1282 277.255 49.2219C279.573 45.3053 282.745 42.2584 286.776 40.0761C290.817 37.8834 295.328 36.7844 300.317 36.7844C305.192 36.7844 309.594 37.8365 313.526 39.9303C317.469 42.0292 320.567 45.0344 322.817 48.9511C325.067 52.8573 326.192 57.399 326.192 62.5761ZM300.422 47.6803C297.14 47.6803 294.39 48.6125 292.172 50.4719C289.963 52.3209 288.614 54.8417 288.13 58.0344H312.609C312.12 54.899 310.765 52.3886 308.547 50.5136C306.323 48.6282 303.614 47.6803 300.422 47.6803Z" fill="#003049"/>
<path d="M343.654 36.7844C351.363 36.7844 357.279 38.6178 361.404 42.2844C365.529 45.9511 367.592 51.4823 367.592 58.8678V87.2428H354.092V81.0553C351.383 85.6698 346.331 87.9719 338.946 87.9719C335.123 87.9719 331.811 87.3261 329.008 86.0344C326.201 84.7428 324.055 82.9615 322.571 80.6803C321.097 78.4042 320.363 75.8157 320.363 72.9094C320.363 68.3001 322.097 64.6698 325.571 62.0136C329.055 59.3625 334.436 58.0344 341.717 58.0344H353.175C353.175 54.899 352.217 52.4823 350.3 50.7844C348.394 49.0917 345.535 48.2428 341.717 48.2428C339.061 48.2428 336.456 48.6594 333.904 49.4928C331.347 50.3261 329.175 51.4511 327.383 52.8678L322.217 42.7844C324.925 40.8834 328.175 39.4094 331.967 38.3678C335.758 37.3157 339.654 36.7844 343.654 36.7844ZM342.55 78.2844C345.008 78.2844 347.186 77.7167 349.092 76.5761C351.008 75.4407 352.368 73.7584 353.175 71.5344V66.4511H343.279C337.363 66.4511 334.404 68.3886 334.404 72.2636C334.404 74.1126 335.123 75.5761 336.571 76.6594C338.029 77.7428 340.019 78.2844 342.55 78.2844Z" fill="#003049"/>
<path d="M382.177 44.0761C383.911 41.675 386.239 39.8625 389.156 38.6386C392.083 37.4042 395.458 36.7844 399.281 36.7844V50.0969C397.682 49.9719 396.604 49.9094 396.052 49.9094C391.927 49.9094 388.687 51.0709 386.343 53.3886C383.994 55.6959 382.823 59.1542 382.823 63.7636V87.2428H368.406V37.5136H382.177V44.0761Z" fill="#003049"/>
<path d="M428.116 84.8469C426.7 85.8886 424.955 86.6751 422.887 87.2011C420.814 87.7115 418.642 87.9719 416.366 87.9719C410.45 87.9719 405.871 86.4667 402.637 83.4511C399.413 80.4407 397.804 76.0032 397.804 70.1386V49.7219H390.116V38.6386H397.804V26.5344H412.22V38.6386H424.595V49.7219H412.22V69.9511C412.22 72.0501 412.752 73.6698 413.825 74.8053C414.908 75.9459 416.434 76.5136 418.408 76.5136C420.684 76.5136 422.621 75.9042 424.22 74.6803L428.116 84.8469Z" fill="#003049"/>
<path d="M155.174 52.3093C157.59 52.6843 159.799 53.6739 161.799 55.2677C163.799 56.851 165.382 58.8198 166.549 61.1635C167.726 63.5125 168.319 66.0177 168.319 68.6843C168.319 72.0593 167.455 75.101 165.736 77.8093C164.028 80.5073 161.533 82.6323 158.257 84.1843C154.991 85.7416 151.137 86.5177 146.694 86.5177H121.903V20.0802H145.736C150.246 20.0802 154.09 20.8302 157.257 22.3302C160.434 23.8198 162.819 25.8302 164.403 28.3718C165.996 30.9135 166.799 33.7781 166.799 36.9552C166.799 40.9031 165.736 44.1583 163.611 46.726C161.486 49.2989 158.674 51.1583 155.174 52.3093ZM130.59 48.7677H145.174C149.226 48.7677 152.366 47.8198 154.59 45.9135C156.825 44.0125 157.944 41.3718 157.944 37.9968C157.944 34.6375 156.825 32.0073 154.59 30.101C152.366 28.1843 149.158 27.226 144.965 27.226H130.59V48.7677ZM145.924 79.3718C150.241 79.3718 153.611 78.3614 156.028 76.3302C158.444 74.2885 159.653 71.4552 159.653 67.8302C159.653 64.1531 158.382 61.2468 155.84 59.1218C153.299 56.9864 149.892 55.9135 145.632 55.9135H130.59V79.3718H145.924Z" fill="#003049"/>
<path d="M215.664 63.2697H174.685C175.06 68.3687 177.018 72.4884 180.56 75.6239C184.102 78.7645 188.571 80.3322 193.977 80.3322C197.018 80.3322 199.81 79.7905 202.352 78.7072C204.893 77.6134 207.091 76.0093 208.956 73.8947L212.685 78.1864C210.518 80.8009 207.8 82.7853 204.539 84.1447C201.274 85.5093 197.69 86.1864 193.789 86.1864C188.758 86.1864 184.3 85.1187 180.414 82.978C176.539 80.8426 173.508 77.8739 171.331 74.0822C169.164 70.2905 168.081 66.0093 168.081 61.228C168.081 56.452 169.112 52.1655 171.185 48.3739C173.268 44.5822 176.123 41.6343 179.748 39.5197C183.383 37.4103 187.477 36.353 192.018 36.353C196.545 36.353 200.607 37.4103 204.206 39.5197C207.815 41.6343 210.643 44.5718 212.685 48.3322C214.737 52.0822 215.768 56.3843 215.768 61.228L215.664 63.2697ZM192.018 42.0405C187.295 42.0405 183.331 43.5509 180.123 46.5614C176.925 49.577 175.112 53.5093 174.685 58.353H209.435C208.987 53.5093 207.17 49.577 203.977 46.5614C200.779 43.5509 196.795 42.0405 192.018 42.0405Z" fill="#003049"/>
<mask id="mask0_2_104" style="mask-type:luminance" maskUnits="userSpaceOnUse" x="0" y="0" width="95" height="104">
<path d="M0 0H95V104H0V0Z" fill="white"/>
</mask>
<g mask="url(#mask0_2_104)">
<path d="M59.2656 32.8542H59.6667L59.9219 32.8594C59.2813 27.2292 56.724 22.1823 52.9219 18.3802C48.4948 13.9583 42.3854 11.2188 35.6354 11.2188C28.8854 11.2188 22.7708 13.9583 18.349 18.3802C13.9219 22.8073 11.1875 28.9167 11.1875 35.6667V92.9375H59.2656C66.0156 92.9375 72.1302 90.1979 76.5521 85.776C80.9792 81.3542 83.7135 75.2396 83.7135 68.4896C83.7135 61.7396 80.9792 55.6302 76.5521 51.2031C74.5573 49.2083 72.224 47.5573 69.6406 46.349C67.901 51.8906 64.8438 56.8542 60.8333 60.8646C55.3281 66.3698 48.0313 70.0781 39.8958 71.0521L39.8177 71.0625C39.7135 71.0729 39.6094 71.0833 39.5052 71.0938L39.3802 71.1094C39.2865 71.1198 39.1927 71.125 39.0938 71.1354L38.9479 71.151C38.8594 71.1615 38.7656 71.1667 38.6771 71.1719L38.5 71.1875C38.4219 71.1979 38.3385 71.2031 38.2552 71.2083L38.0625 71.2188C37.9844 71.2292 37.9063 71.2292 37.8281 71.2344L37.6198 71.25C37.5417 71.25 37.4688 71.2552 37.3906 71.2604C37.3177 71.2656 37.2396 71.2656 37.1667 71.2708C37.099 71.2708 37.0313 71.276 36.9635 71.2813C36.875 71.2813 36.7865 71.2865 36.7031 71.2865L36.5208 71.2917C36.4219 71.2917 36.3229 71.2969 36.224 71.2969L36.0781 71.3021C35.9323 71.3021 35.7813 71.3021 35.6354 71.3021C34.4792 71.3021 33.2448 71.2344 31.9375 71.099C30.6927 70.9688 29.474 70.776 28.2865 70.526L23.2969 69.4792L23.8698 64.4531C24.8854 55.5 29.2031 47.5625 35.5677 41.8854C41.8698 36.2656 50.1719 32.8542 59.2656 32.8542ZM71.2552 34.6042L71.6042 34.6771L71.5625 35.0313C76.4583 36.8333 80.849 39.6771 84.4635 43.2917C90.9115 49.7396 94.901 58.651 94.901 68.4896C94.901 78.3281 90.9115 87.2396 84.4635 93.6875C78.0156 100.135 69.1042 104.125 59.2656 104.125H0V35.6667C0 25.8281 3.98958 16.9167 10.4375 10.4688C16.8854 4.02083 25.7969 0.03125 35.6354 0.03125C45.474 0.03125 54.3802 4.02083 60.8333 10.4688C67.0469 16.6875 70.9792 25.1875 71.2552 34.6042ZM38.1875 59.9844C38.2396 59.9792 38.2969 59.9688 38.349 59.9635L38.4688 59.9531C38.5573 59.9427 38.6406 59.9323 38.7292 59.9219L38.75 59.9167C44.2552 59.2188 49.1875 56.6875 52.9219 52.9531C55.4115 50.4583 57.3698 47.4323 58.6042 44.0521C52.6146 44.2083 47.1667 46.5208 43 50.2344C40.0104 52.901 37.6823 56.2813 36.2865 60.1042C36.5521 60.099 36.8177 60.0885 37.0781 60.0729L37.1406 60.0677C37.2083 60.0625 37.2708 60.0573 37.3385 60.0573L37.4375 60.0469C37.5 60.0417 37.5625 60.0365 37.625 60.0365L37.7292 60.026L37.9063 60.0104L38.0365 60L38.1875 59.9844Z" fill="#C1121F"/>
</g>
</svg>
