<svg width="446" height="177" viewBox="0 0 446 177" fill="none" xmlns="http://www.w3.org/2000/svg">
<mask id="mask0_2_105" style="mask-type:luminance" maskUnits="userSpaceOnUse" x="0" y="0" width="161" height="177">
<path d="M0.239578 0.046875H160.24V176.047H0.239578V0.046875Z" fill="white"/>
</mask>
<g mask="url(#mask0_2_105)">
<path d="M100.339 55.5313H100.719L100.734 55.5365H101.01L101.443 55.5417C100.354 46.0365 96.0417 37.5104 89.6198 31.0886C82.1458 23.6198 71.8229 18.9948 60.4219 18.9948C49.026 18.9948 38.7031 23.6198 31.2292 31.0886C23.7604 38.5625 19.1354 48.8854 19.1354 60.2865V157.005H100.339C111.734 157.005 122.057 152.38 129.531 144.911C137 137.438 141.625 127.115 141.625 115.714C141.625 104.318 137 93.9948 129.531 86.5208C126.161 83.1563 122.219 80.3698 117.854 78.3229C114.917 87.6875 109.75 96.0677 102.979 102.839C93.6823 112.13 81.3646 118.401 67.625 120.042L67.4844 120.057C67.3125 120.078 67.1406 120.094 66.9635 120.115L66.75 120.135C66.5885 120.156 66.4323 120.172 66.2708 120.188L66.0208 120.208C65.8698 120.224 65.7187 120.24 65.5625 120.25L65.2708 120.276C65.1302 120.286 64.9948 120.297 64.8542 120.307L64.5208 120.328C64.3906 120.339 64.2604 120.344 64.1302 120.354L63.776 120.375C63.6458 120.38 63.5208 120.391 63.3906 120.396C63.2656 120.401 63.1354 120.406 63.0104 120.411C62.8958 120.417 62.7812 120.422 62.6667 120.427C62.5208 120.432 62.375 120.438 62.2292 120.438L61.9167 120.448C61.75 120.453 61.5833 120.458 61.4167 120.458L61.1771 120.464C60.9271 120.469 60.6771 120.469 60.4271 120.469C58.474 120.469 56.3906 120.349 54.1823 120.12C52.0781 119.901 50.0156 119.578 48.0104 119.156L39.5937 117.385L40.5573 108.896C42.2708 93.7813 49.5625 80.375 60.3125 70.7865C70.9531 61.2969 84.974 55.5313 100.339 55.5313ZM120.583 58.4896L121.167 58.6146L121.099 59.2136C129.365 62.2552 136.781 67.0521 142.891 73.1615C153.781 84.0521 160.521 99.099 160.521 115.714C160.521 132.333 153.781 147.38 142.891 158.271C131.995 169.161 116.953 175.901 100.339 175.901H0.239578V60.2865C0.239578 43.6667 6.97916 28.6198 17.8698 17.7292C28.7604 6.83855 43.8073 0.0989685 60.4271 0.0989685C77.0417 0.0989685 92.0885 6.83855 102.979 17.7292C113.479 28.2292 120.115 42.5886 120.583 58.4896ZM64.7344 101.349C64.8281 101.339 64.9219 101.328 65.0104 101.318L65.2135 101.297C65.3594 101.281 65.5052 101.26 65.651 101.245L65.6875 101.24C74.9844 100.057 83.3125 95.7813 89.6198 89.4792C93.8281 85.2656 97.1354 80.1511 99.2187 74.4427C89.1042 74.7136 79.8958 78.6146 72.8646 84.8854C67.8177 89.3854 63.8854 95.099 61.526 101.557C61.974 101.547 62.4219 101.526 62.8646 101.5L62.9635 101.495C63.0781 101.49 63.1927 101.479 63.3021 101.474L63.474 101.458C63.5781 101.453 63.6823 101.443 63.7865 101.438L63.9583 101.422L64.2604 101.396L64.4792 101.375L64.7344 101.349Z" fill="#C1121F"/>
</g>
<path d="M261.113 89.0375V167.079H243.072V135.079H207.613V167.079H189.551V89.0375H207.613V119.808H243.072V89.0375H261.113Z" fill="#003049"/>
<path d="M322.429 137.308C322.429 137.532 322.315 139.095 322.096 141.996H276.721C277.539 145.72 279.471 148.657 282.513 150.808C285.565 152.965 289.357 154.038 293.888 154.038C297.013 154.038 299.784 153.574 302.2 152.642C304.617 151.715 306.867 150.246 308.95 148.246L318.2 158.267C312.544 164.741 304.294 167.975 293.45 167.975C286.685 167.975 280.7 166.657 275.492 164.017C270.294 161.381 266.284 157.72 263.45 153.038C260.627 148.36 259.221 143.048 259.221 137.1C259.221 131.225 260.617 125.928 263.409 121.204C266.2 116.485 270.023 112.803 274.888 110.163C279.763 107.527 285.206 106.204 291.221 106.204C297.096 106.204 302.409 107.47 307.159 109.996C311.919 112.527 315.659 116.152 318.367 120.871C321.075 125.595 322.429 131.074 322.429 137.308ZM291.325 119.371C287.393 119.371 284.086 120.491 281.409 122.725C278.726 124.949 277.096 127.991 276.513 131.85H306.054C305.456 128.058 303.815 125.032 301.138 122.767C298.471 120.506 295.2 119.371 291.325 119.371Z" fill="#003049"/>
<path d="M343.493 106.204C352.785 106.204 359.915 108.423 364.889 112.85C369.873 117.267 372.368 123.933 372.368 132.85V167.079H356.097V159.6C352.832 165.183 346.743 167.975 337.826 167.975C333.212 167.975 329.212 167.194 325.826 165.642C322.451 164.074 319.868 161.913 318.076 159.163C316.295 156.413 315.41 153.298 315.41 149.808C315.41 144.225 317.504 139.84 321.701 136.642C325.91 133.449 332.394 131.85 341.16 131.85H354.993C354.993 128.058 353.837 125.142 351.535 123.1C349.227 121.058 345.769 120.038 341.16 120.038C337.962 120.038 334.826 120.538 331.743 121.538C328.66 122.538 326.04 123.892 323.889 125.6L317.639 113.454C320.899 111.152 324.816 109.366 329.389 108.1C333.972 106.84 338.67 106.204 343.493 106.204ZM342.16 156.267C345.129 156.267 347.769 155.579 350.076 154.204C352.379 152.829 354.019 150.803 354.993 148.121V141.996H343.056C335.915 141.996 332.347 144.34 332.347 149.017C332.347 151.256 333.222 153.027 334.972 154.329C336.722 155.621 339.118 156.267 342.16 156.267Z" fill="#003049"/>
<path d="M389.996 115.017C392.064 112.116 394.861 109.923 398.392 108.433C401.934 106.949 406.007 106.204 410.621 106.204V122.267C408.673 122.116 407.371 122.038 406.704 122.038C401.73 122.038 397.829 123.433 394.996 126.225C392.173 129.017 390.767 133.199 390.767 138.767V167.079H373.371V107.1H389.996V115.017Z" fill="#003049"/>
<path d="M445.389 164.183C443.681 165.449 441.576 166.402 439.076 167.038C436.587 167.663 433.972 167.975 431.222 167.975C424.097 167.975 418.582 166.157 414.681 162.517C410.774 158.866 408.826 153.512 408.826 146.454V121.808H399.576V108.433H408.826V93.8292H426.222V108.433H441.16V121.808H426.222V146.225C426.222 148.756 426.868 150.704 428.16 152.079C429.462 153.454 431.306 154.142 433.681 154.142C436.431 154.142 438.769 153.402 440.701 151.913L445.389 164.183Z" fill="#003049"/>
<path d="M229.009 46.5912C231.91 47.0495 234.561 48.237 236.967 50.1537C239.368 52.06 241.269 54.4193 242.676 57.237C244.092 60.06 244.801 63.0704 244.801 66.2787C244.801 70.31 243.764 73.9454 241.697 77.1954C239.639 80.435 236.644 82.987 232.717 84.862C228.801 86.7266 224.176 87.6537 218.842 87.6537H189.113V7.94537H217.697C223.113 7.94537 227.723 8.84121 231.53 10.6329C235.348 12.4245 238.207 14.8516 240.113 17.9037C242.014 20.9454 242.967 24.3777 242.967 28.1954C242.967 32.9193 241.686 36.8308 239.134 39.9245C236.577 43.0079 233.202 45.2318 229.009 46.5912ZM199.509 42.362H217.009C221.884 42.362 225.655 41.2266 228.322 38.9454C230.988 36.6537 232.322 33.487 232.322 29.4454C232.322 25.4037 230.988 22.2475 228.322 19.9662C225.655 17.6745 221.806 16.5287 216.78 16.5287H199.509V42.362ZM217.926 79.0704C223.103 79.0704 227.139 77.8568 230.03 75.4245C232.931 72.9818 234.384 69.586 234.384 65.237C234.384 60.8204 232.853 57.336 229.801 54.7787C226.759 52.2266 222.681 50.9454 217.572 50.9454H199.509V79.0704H217.926Z" fill="#003049"/>
<path d="M301.606 59.7687H252.44C252.882 65.8833 255.221 70.8208 259.461 74.5812C263.711 78.3469 269.075 80.2271 275.565 80.2271C279.216 80.2271 282.57 79.576 285.627 78.2687C288.679 76.9667 291.325 75.05 293.565 72.5187L298.023 77.6646C295.408 80.7896 292.148 83.175 288.231 84.8104C284.325 86.451 280.028 87.2687 275.336 87.2687C269.304 87.2687 263.961 85.9875 259.294 83.4146C254.638 80.8469 251.007 77.2896 248.398 72.7479C245.799 68.1958 244.502 63.05 244.502 57.3104C244.502 51.576 245.742 46.4354 248.231 41.8937C250.731 37.3521 254.158 33.8208 258.523 31.2896C262.882 28.7479 267.778 27.4771 273.211 27.4771C278.653 27.4771 283.533 28.7479 287.856 31.2896C292.174 33.8208 295.565 37.3417 298.023 41.8521C300.481 46.3521 301.711 51.5083 301.711 57.3104L301.606 59.7687ZM273.211 34.2896C267.554 34.2896 262.804 36.1021 258.961 39.7271C255.127 43.3417 252.95 48.05 252.44 53.8521H294.106C293.591 48.05 291.408 43.3417 287.565 39.7271C283.731 36.1021 278.945 34.2896 273.211 34.2896Z" fill="#003049"/>
</svg>
